<?xml version="1.0" encoding="UTF-8"?>
<svg width="92px" height="57px" viewBox="0 0 92 57" version="1.1" xmlns="http://www.w3.org/2000/svg" xmlns:xlink="http://www.w3.org/1999/xlink">
    <!-- Generator: Sketch 53.1 (72631) - https://sketchapp.com -->
    <title>Group</title>
    <desc>Created with Sketch.</desc>
    <g id="Page-1" stroke="none" stroke-width="1" fill="none" fill-rule="evenodd">
        <g id="noun_quiz_21610" fill="#FFFFFF" fill-rule="nonzero">
            <g id="Group">
                <path d="M64.633,35.761 C64.476,35.761 64.316,35.771 64.159,35.793 C62.187,36.057 60.797,37.874 61.059,39.846 C61.297,41.631 62.836,42.977 64.638,42.977 C64.796,42.977 64.955,42.967 65.113,42.946 C67.084,42.682 68.474,40.865 68.213,38.892 C67.974,37.107 66.435,35.761 64.633,35.761 Z" id="Path"></path>
                <path d="M69.58,14.083 C67.971,13.02 65.847,12.458 63.434,12.458 C62.725,12.458 61.996,12.507 61.268,12.604 C58.86,12.925 56.524,14.091 54.858,15.801 C53.169,17.537 52.348,19.656 52.61,21.614 C52.802,23.059 53.89,23.993 55.381,23.993 C55.541,23.993 55.704,23.981 55.867,23.96 C57.859,23.694 58.289,22.322 58.703,20.996 C59.176,19.484 59.622,18.057 62.196,17.713 C62.46,17.678 62.717,17.66 62.961,17.66 C64.814,17.66 65.964,18.638 66.201,20.414 C66.433,22.152 65.059,23.538 63.604,25.005 C61.971,26.652 60.12,28.518 60.473,31.165 C60.564,31.847 60.865,32.483 61.319,32.956 C61.84,33.499 62.522,33.786 63.291,33.786 C63.432,33.786 63.578,33.777 63.723,33.757 C65.807,33.479 66.091,32.27 66.365,31.099 C66.469,30.657 66.577,30.199 66.785,29.787 C67.074,29.211 67.797,28.535 68.636,27.753 C70.638,25.882 73.379,23.32 72.872,19.525 C72.555,17.148 71.446,15.317 69.58,14.083 Z" id="Path"></path>
                <path d="M91.961,45.606 L86.378,3.766 C86.091,1.62 84.243,0 82.078,0 C81.887,0 81.692,0.013 81.501,0.039 L39.662,5.622 C37.29,5.939 35.618,8.126 35.934,10.499 L36.253,12.893 L8.812,8.928 C8.652,8.905 8.489,8.893 8.328,8.893 C6.667,8.893 5.236,10.134 4.997,11.779 L0.315,44.188 C0.187,45.079 0.413,45.965 0.951,46.686 C1.49,47.406 2.276,47.874 3.167,48.002 L35.575,52.684 C35.736,52.706 35.899,52.717 36.059,52.717 C37.72,52.717 39.151,51.478 39.389,49.832 L40.321,43.379 L41.516,52.336 C41.803,54.484 43.651,56.103 45.815,56.103 C46.007,56.103 46.202,56.091 46.393,56.066 L88.233,50.481 C89.38,50.329 90.402,49.737 91.106,48.816 C91.812,47.896 92.114,46.755 91.961,45.606 Z M36.623,49.434 C36.579,49.741 36.289,49.963 35.976,49.917 L3.567,45.235 C3.362,45.206 3.244,45.083 3.191,45.012 C3.138,44.941 3.054,44.791 3.083,44.587 L7.765,12.178 C7.806,11.899 8.048,11.688 8.328,11.688 C8.356,11.688 8.385,11.69 8.412,11.694 L36.638,15.771 L38.966,33.215 L36.623,49.434 Z M88.244,46.627 C88.175,46.718 88.019,46.875 87.756,46.91 L45.917,52.494 C45.512,52.55 45.143,52.259 45.089,51.861 L39.506,10.022 C39.452,9.619 39.736,9.248 40.139,9.194 L81.977,3.61 C82.012,3.606 82.044,3.604 82.079,3.604 C82.445,3.604 82.759,3.879 82.807,4.244 L88.392,46.084 C88.425,46.347 88.312,46.537 88.244,46.627 Z" id="Shape"></path>
                <path d="M29.159,21.087 C27.875,19.911 25.973,19.09 23.805,18.777 C23.409,18.719 23.002,18.69 22.597,18.69 C20.894,18.69 19.22,19.19 17.88,20.098 C16.503,21.032 15.634,22.301 15.437,23.67 C15.343,24.321 15.498,24.901 15.887,25.349 C16.237,25.751 16.764,26.022 17.372,26.11 C17.525,26.132 17.672,26.144 17.812,26.144 C19.039,26.144 19.587,25.307 20.117,24.498 C20.708,23.592 21.268,22.736 22.757,22.736 C22.963,22.736 23.186,22.753 23.417,22.786 C25.181,23.04 26.062,24.084 25.835,25.65 C25.642,26.995 24.322,27.74 22.927,28.527 C21.36,29.411 19.583,30.413 19.287,32.464 C19.204,33.036 19.32,33.632 19.607,34.097 C19.842,34.479 20.302,34.96 21.164,35.085 C21.344,35.11 21.515,35.124 21.673,35.124 L21.674,35.124 C22.886,35.124 23.299,34.379 23.697,33.659 C23.868,33.35 24.044,33.031 24.287,32.768 C24.624,32.399 25.308,32.047 26.099,31.64 C27.989,30.668 30.578,29.334 31.002,26.396 C31.303,24.305 30.667,22.469 29.159,21.087 Z" id="Path"></path>
                <path d="M21.057,36.696 C20.925,36.677 20.792,36.666 20.66,36.666 C19.277,36.666 18.084,37.699 17.886,39.066 C17.667,40.593 18.73,42.015 20.257,42.236 C20.389,42.256 20.523,42.264 20.654,42.264 C22.038,42.264 23.231,41.233 23.428,39.866 C23.647,38.339 22.584,36.918 21.057,36.696 Z" id="Path"></path>
            </g>
        </g>
    </g>
</svg>