<?xml version="1.0" encoding="UTF-8"?>
<svg width="192px" height="192px" viewBox="0 0 192 192" version="1.1" xmlns="http://www.w3.org/2000/svg" xmlns:xlink="http://www.w3.org/1999/xlink">
    <!-- Generator: Sketch 54.1 (76490) - https://sketchapp.com -->
    <title>Untitled</title>
    <desc>Created with Sketch.</desc>
    <g id="Page-1" stroke="none" stroke-width="1" fill="none" fill-rule="evenodd">
        <rect id="Rectangle" fill="#2A2A2A" fill-rule="nonzero" x="1.42108547e-14" y="0" width="192" height="192" rx="42"></rect>
        <g id="logo_square" transform="translate(21.000000, 45.000000)" fill="#FFFFFF" fill-rule="nonzero">
            <path d="M106.164154,59.4155844 C105.909892,59.4155844 105.650771,59.4331325 105.396509,59.471737 C102.202846,59.9349925 99.9517344,63.1233896 100.376044,66.5837727 C100.761487,69.7160172 103.253905,72.0779221 106.172252,72.0779221 C106.428133,72.0779221 106.685635,72.060374 106.941516,72.0235247 C110.13356,71.5602682 112.384671,68.3718721 111.96198,64.9097338 C111.574919,61.7774893 109.082501,59.4155844 106.164154,59.4155844 Z" id="Path"></path>
            <path d="M113.379672,22.1521492 C110.763983,20.4044924 107.311077,19.4805195 103.388356,19.4805195 C102.235762,19.4805195 101.050655,19.5610794 99.8671734,19.7205551 C95.9525805,20.2483048 92.1550344,22.1653019 89.4466821,24.9766784 C86.7009399,27.830801 85.3662721,31.3146062 85.7921951,34.5337146 C86.1043227,36.90941 87.8730419,38.4449805 90.2969036,38.4449805 C90.5570094,38.4449805 90.8219922,38.4252516 91.086975,38.3907259 C94.3252929,37.9534007 95.0243279,35.6977231 95.6973516,33.5176733 C96.4662896,31.0318245 97.1913341,28.6857226 101.375787,28.1201591 C101.804962,28.0626163 102.222757,28.0330228 102.619418,28.0330228 C105.631769,28.0330228 107.50128,29.6409329 107.886562,32.5608188 C108.263716,35.4182296 106.030056,37.6969242 103.664719,40.1087894 C101.010014,42.8165889 98.0009133,45.8844419 98.5747724,50.2363208 C98.7227075,51.3575834 99.2120318,52.4032188 99.9500815,53.1808685 C100.797052,54.0736032 101.905753,54.5454545 103.155886,54.5454545 C103.385105,54.5454545 103.622452,54.5306581 103.858173,54.497776 C107.246051,54.0407221 107.707739,52.0530292 108.15317,50.1278123 C108.322239,49.4011287 108.49781,48.6481402 108.835948,47.9707792 C109.305765,47.0237892 110.481118,45.9123913 111.845047,44.6267208 C115.099622,41.5506474 119.555561,37.3385149 118.73135,31.0992318 C118.216015,27.191254 116.413156,24.1809437 113.379672,22.1521492 Z" id="Path"></path>
            <path d="M149.936494,75.2194305 L140.805967,6.2113839 C140.336603,2.67191766 137.314355,0 133.773679,0 C133.461315,0 133.142409,0.0214413312 132.830044,0.0643238961 L64.4058846,9.27254396 C60.5266784,9.79538211 57.7922634,13.402471 58.3090547,17.3163356 L58.8307523,21.2648362 L13.9533086,14.7252352 C13.691642,14.6873006 13.4250693,14.6675085 13.1617673,14.6675085 C10.4453418,14.6675085 8.10506182,16.7143294 7.71419747,19.4274805 L0.0571808765,72.8806782 C-0.152152305,74.3502331 0.217451591,75.8115409 1.09730532,77.0007088 C1.97879445,78.1882276 3.26423123,78.9601149 4.72138666,79.1712302 L57.7219405,86.8934016 C57.9852424,86.929687 58.2518152,86.9478302 58.5134817,86.9478302 C61.2299073,86.9478302 63.5701872,84.9043071 63.9594162,82.1895068 L65.4836236,71.5463688 L67.4379455,86.3194344 C67.9073098,89.8621987 70.9295581,92.5324675 74.4685978,92.5324675 C74.7825976,92.5324675 75.1015037,92.5126753 75.4138681,92.4714419 L143.839664,83.2599234 C145.715485,83.0092247 147.38688,82.0328211 148.538213,80.5137857 C149.692817,78.9964003 150.186712,77.114513 149.936494,75.2194305 Z M59.4358561,81.5330727 C59.3638979,82.0394182 58.8896273,82.4055701 58.3777422,82.3297003 L5.37555292,74.6075289 C5.04029269,74.5596974 4.8473136,74.3568302 4.76063659,74.2397279 C4.67395958,74.1226247 4.53658461,73.875225 4.58401169,73.5387614 L12.2410283,20.0855639 C12.3080803,19.6254003 12.7038509,19.2773912 13.1617673,19.2773912 C13.207559,19.2773912 13.254986,19.2806899 13.2991423,19.2872872 L59.4603874,26.0116134 L63.2676353,54.7825588 L59.4358561,81.5330727 Z M143.857653,76.9033987 C143.744809,77.0534873 143.489684,77.3124331 143.05957,77.3701597 L74.6354102,86.5800282 C73.9730668,86.6723912 73.3695984,86.192436 73.281286,85.5360019 L64.1507598,16.5296043 C64.0624474,15.8649236 64.5269054,15.2530214 65.185978,15.1639575 L133.608503,5.95408812 C133.665742,5.94749084 133.718076,5.94419221 133.775315,5.94419221 C134.373877,5.94419221 134.887398,6.39775841 134.965897,6.99976461 L144.099694,76.007811 C144.153663,76.4415857 143.968861,76.7549581 143.857653,76.9033987 Z" id="Shape"></path>
            <path d="M48.5261335,33.3407419 C46.4503017,31.3194336 43.3753545,29.9082991 39.8703674,29.3703148 C39.2301576,29.2706244 38.5721642,29.2207792 37.9174041,29.2207792 C35.1641785,29.2207792 32.457837,30.080179 30.2914705,31.6408491 C28.0652863,33.246208 26.6603814,35.4273647 26.3418931,37.7804014 C26.1899241,38.89934 26.4405113,39.8962438 27.0694043,40.666266 C27.6352463,41.3572235 28.4872427,41.8230181 29.4701911,41.9742726 C29.7175449,42.0120861 29.9551986,42.0327117 30.1815354,42.0327117 C32.1652158,42.0327117 33.0511628,40.5940764 33.9080092,39.2035675 C34.8634739,37.646335 35.7688211,36.1750426 38.1760747,36.1750426 C38.5091131,36.1750426 38.8696354,36.2042621 39.2430911,36.2609826 C42.0949348,36.6975577 43.51924,38.4919845 43.1522511,41.1836247 C42.8402296,43.4954102 40.7061968,44.775916 38.4509122,46.1286113 C35.9175567,47.6480302 33.044696,49.3702673 32.5661553,52.8955256 C32.43197,53.8786792 32.6195061,54.9030838 33.0834966,55.7023256 C33.4634191,56.3589068 34.2070971,57.1856494 35.6006852,57.400499 C35.8916897,57.4434692 36.1681439,57.4675325 36.4235812,57.4675325 L36.4251979,57.4675325 C38.3846279,57.4675325 39.0523215,56.1870263 39.6957647,54.9494912 C39.972219,54.4183821 40.2567566,53.8700844 40.6496126,53.4180409 C41.1944377,52.7838039 42.3002546,52.1787857 43.5790576,51.4792344 C46.6346044,49.8085617 50.8202187,47.5156825 51.5056959,42.4658493 C51.99232,38.8718392 50.9641042,35.7161231 48.5261335,33.3407419 Z" id="Path"></path>
            <path d="M34.2301474,59.4677834 C34.0234845,59.434724 33.8152559,59.4155844 33.608593,59.4155844 C31.4433293,59.4155844 29.575535,61.2129565 29.2655407,63.5914724 C28.9226681,66.2483815 30.5869307,68.7225955 32.9776448,69.1071253 C33.1843077,69.1419244 33.3941019,69.1558442 33.5991993,69.1558442 C35.7660285,69.1558442 37.6338228,67.3619523 37.9422515,64.9834354 C38.2851242,62.3265263 36.6208615,59.8540529 34.2301474,59.4677834 Z" id="Path"></path>
        </g>
    </g>
</svg>